M48
; DRILL file {KiCad 8.0.4} date 2024-10-18T12:57:24-0700
; FORMAT={-:-/ absolute / metric / decimal}
; #@! TF.CreationDate,2024-10-18T12:57:24-07:00
; #@! TF.GenerationSoftware,Kicad,Pcbnew,8.0.4
; #@! TF.FileFunction,Plated,1,2,PTH
FMAT,2
METRIC
; #@! TA.AperFunction,Plated,PTH,ViaDrill
T1C0.250
; #@! TA.AperFunction,Plated,PTH,ComponentDrill
T2C0.300
; #@! TA.AperFunction,Plated,PTH,ViaDrill
T3C0.400
; #@! TA.AperFunction,Plated,PTH,ComponentDrill
T4C0.700
; #@! TA.AperFunction,Plated,PTH,ComponentDrill
T5C0.700
%
G90
G05
T1
X47.9Y-128.42
X47.9Y-130.695
X47.9Y-132.971
X47.9Y-135.247
X47.9Y-137.523
X50.141Y-135.153
X53.139Y-128.42
X53.139Y-130.695
X53.139Y-132.971
X53.139Y-135.247
X53.139Y-137.523
X57.275Y-128.42
X57.275Y-130.695
X57.275Y-132.971
X57.275Y-135.247
X57.275Y-137.523
X59.797Y-128.42
X59.798Y-137.523
X59.843Y-132.971
X62.138Y-128.42
X62.157Y-137.523
X65.802Y-128.42
X65.802Y-130.695
X65.802Y-132.971
X65.802Y-135.247
X65.802Y-137.523
X68.292Y-137.523
X70.474Y-137.523
X73.068Y-128.42
X73.068Y-130.695
X73.068Y-132.971
X73.068Y-135.247
X73.068Y-137.523
X75.623Y-137.523
X77.928Y-137.523
X79.852Y-132.446
X80.143Y-130.006
X80.17Y-135.294
X81.354Y-137.523
X81.385Y-128.42
X83.924Y-128.42
X84.069Y-137.523
X85.134Y-92.531
X85.134Y-97.865
X85.134Y-103.2
X85.134Y-105.867
X85.19Y-108.534
X85.19Y-113.868
X85.602Y-135.271
X85.647Y-130.052
X86.026Y-132.553
X87.689Y-97.87
X87.857Y-108.524
X90.266Y-92.662
X90.266Y-97.865
X90.266Y-100.541
X90.266Y-103.2
X90.266Y-108.631
X90.266Y-111.072
X90.266Y-113.868
X92.805Y-92.531
X92.805Y-113.868
X92.817Y-103.2
X95.343Y-92.531
X95.343Y-95.477
X95.343Y-97.865
X95.343Y-103.2
X95.343Y-105.867
X95.343Y-108.534
X95.343Y-113.868
X95.844Y-128.42
X96.273Y-130.695
X96.706Y-132.971
X97.356Y-135.247
X97.816Y-137.523
X97.849Y-108.534
X97.881Y-97.865
X97.881Y-113.868
X99.552Y-133.524
X99.569Y-131.114
X100.115Y-108.534
X100.352Y-100.623
X100.419Y-92.531
X100.419Y-97.865
X100.419Y-103.2
X100.419Y-113.868
X101.29Y-137.523
X101.927Y-135.247
X102.344Y-132.971
X102.953Y-130.695
X102.957Y-92.531
X102.957Y-103.2
X102.957Y-113.868
X103.448Y-128.42
X105.425Y-92.531
X105.425Y-95.198
X105.425Y-97.865
X105.425Y-103.2
X105.425Y-105.867
X105.425Y-108.534
X105.425Y-111.201
X105.425Y-113.868
X106.592Y-132.971
X106.694Y-130.695
X106.72Y-135.247
X108.15Y-137.523
X108.259Y-128.42
X110.706Y-137.523
X110.805Y-128.42
X112.212Y-135.247
X112.279Y-130.695
X112.405Y-132.971
X116.35Y-128.42
X116.35Y-130.695
X116.35Y-132.971
X116.35Y-135.247
X116.35Y-137.523
X118.962Y-128.42
X119.056Y-132.967
X120.053Y-135.294
X121.276Y-128.698
X121.276Y-137.523
X121.393Y-131.03
X125.225Y-128.42
X125.225Y-130.488
X125.225Y-132.857
X125.225Y-135.294
X125.225Y-137.523
X127.759Y-137.523
X130.095Y-137.523
X132.628Y-128.42
X132.628Y-130.561
X132.628Y-132.966
X132.628Y-135.294
X132.628Y-137.523
X135.278Y-137.523
X135.373Y-128.42
X137.217Y-129.965
X137.481Y-135.294
X137.823Y-132.748
X141.473Y-128.42
X141.473Y-131.076
X141.473Y-133.654
X141.473Y-137.523
T2
X128.025Y-169.421
X128.025Y-169.421
X128.025Y-169.421
X128.025Y-169.421
X128.025Y-169.421
X128.025Y-169.421
X128.025Y-169.421
X128.025Y-169.421
X128.025Y-169.421
X128.025Y-169.421
X128.025Y-169.421
X128.025Y-169.421
T3
X99.0Y-175.75
X100.5Y-179.75
X101.993Y-174.332
X102.75Y-173.5
X104.0Y-179.75
X105.5Y-175.75
X111.5Y-104.75
X111.5Y-106.0
X111.5Y-107.0
X111.5Y-108.0
X119.25Y-144.75
X121.5Y-144.5
X123.75Y-144.5
X127.0Y-145.5
X136.25Y-159.75
X136.25Y-161.25
X141.0Y-177.5
X143.5Y-177.5
T4
X99.078Y-179.095
X99.078Y-179.095
T5
G00X97.648Y-178.055
M15
G01X97.648Y-179.055
M16
G05
G00X97.648Y-182.395
M15
G01X97.648Y-183.095
M16
G05
G00X106.288Y-178.055
M15
G01X106.288Y-179.055
M16
G05
G00X106.288Y-182.395
M15
G01X106.288Y-183.095
M16
G05
M30
