<?xml version="1.0" standalone="no"?>
 <!DOCTYPE svg PUBLIC "-//W3C//DTD SVG 1.1//EN" 
 "http://www.w3.org/Graphics/SVG/1.1/DTD/svg11.dtd"> 
<svg
  xmlns:svg="http://www.w3.org/2000/svg"
  xmlns="http://www.w3.org/2000/svg"
  xmlns:xlink="http://www.w3.org/1999/xlink"
  version="1.1"
  width="297.0022mm" height="210.0072mm" viewBox="0.0000 0.0000 297.0022 210.0072">
<title>SVG Image created as hello-world-B_Cu.svg date 2024/10/18 12:57:31 </title>
  <desc>Image generated by PCBNEW </desc>
<g style="fill:#000000; fill-opacity:1.0000;stroke:#000000; stroke-opacity:1.0000;
stroke-linecap:round; stroke-linejoin:round;"
 transform="translate(0 0) scale(1 1)">
</g>
<g style="fill:#000000; fill-opacity:1.0000; stroke:none;">
<circle cx="99.0783" cy="179.0946" r="0.3500" /> 
</g>
<g style="fill:#000000; fill-opacity:1.0000; stroke:none;">
<circle cx="99.0783" cy="179.0946" r="0.3500" /> 
</g>
<g style="fill:none; 
stroke:#000000; stroke-width:1.2000; stroke-opacity:1; 
stroke-linecap:round; stroke-linejoin:round;">
<path d="M97.6483 178.1546
L97.6483 178.9546
" />
<path d="M106.2883 178.1546
L106.2883 178.9546
" />
<path d="M106.2883 182.4446
L106.2883 183.0446
" />
<path d="M97.6483 182.4446
L97.6483 183.0446
" />
</g>
<g style="fill:#000000; fill-opacity:1.0000; stroke:none;">
<circle cx="128.0247" cy="169.4208" r="0.2500" /> 
</g>
<g style="fill:#000000; fill-opacity:1.0000; stroke:none;">
<circle cx="128.0247" cy="169.4208" r="0.2500" /> 
</g>
<g style="fill:#000000; fill-opacity:1.0000; stroke:none;">
<circle cx="128.0247" cy="169.4208" r="0.2500" /> 
</g>
<g style="fill:#000000; fill-opacity:1.0000; stroke:none;">
<circle cx="128.0247" cy="169.4208" r="0.2500" /> 
</g>
<g style="fill:#000000; fill-opacity:1.0000; stroke:none;">
<circle cx="128.0247" cy="169.4208" r="0.2500" /> 
</g>
<g style="fill:#000000; fill-opacity:1.0000; stroke:none;">
<circle cx="128.0247" cy="169.4208" r="0.2500" /> 
</g>
<g style="fill:#000000; fill-opacity:1.0000; stroke:none;">
<circle cx="128.0247" cy="169.4208" r="0.2500" /> 
</g>
<g style="fill:#000000; fill-opacity:1.0000; stroke:none;">
<circle cx="128.0247" cy="169.4208" r="0.2500" /> 
</g>
<g style="fill:#000000; fill-opacity:1.0000; stroke:none;">
<circle cx="128.0247" cy="169.4208" r="0.2500" /> 
</g>
<g style="fill:#000000; fill-opacity:1.0000; stroke:none;">
<circle cx="128.0247" cy="169.4208" r="0.2500" /> 
</g>
<g style="fill:#000000; fill-opacity:1.0000; stroke:none;">
<circle cx="128.0247" cy="169.4208" r="0.2500" /> 
</g>
<g style="fill:#000000; fill-opacity:1.0000; stroke:none;">
<circle cx="128.0247" cy="169.4208" r="0.2500" /> 
</g>
<g style="fill:#000000; fill-opacity:1.0000; stroke:none;">
<circle cx="101.9933" cy="174.3321" r="0.4000" /> 
</g>
<g style="fill:#000000; fill-opacity:1.0000; stroke:none;">
<circle cx="136.2500" cy="161.2500" r="0.4000" /> 
</g>
<g style="fill:#000000; fill-opacity:1.0000; stroke:none;">
<circle cx="136.2500" cy="159.7500" r="0.4000" /> 
</g>
<g style="fill:#000000; fill-opacity:1.0000; stroke:none;">
<circle cx="102.7500" cy="173.5000" r="0.4000" /> 
</g>
<g style="fill:#000000; fill-opacity:1.0000; stroke:none;">
<circle cx="111.5000" cy="104.7500" r="0.4000" /> 
</g>
<g style="fill:#000000; fill-opacity:1.0000; stroke:none;">
<circle cx="111.5000" cy="106.0000" r="0.4000" /> 
</g>
<g style="fill:#000000; fill-opacity:1.0000; stroke:none;">
<circle cx="111.5000" cy="107.0000" r="0.4000" /> 
</g>
<g style="fill:#000000; fill-opacity:1.0000; stroke:none;">
<circle cx="111.5000" cy="108.0000" r="0.4000" /> 
</g>
<g style="fill:#000000; fill-opacity:1.0000; stroke:none;">
<circle cx="119.2500" cy="144.7500" r="0.4000" /> 
</g>
<g style="fill:#000000; fill-opacity:1.0000; stroke:none;">
<circle cx="143.5000" cy="177.5000" r="0.4000" /> 
</g>
<g style="fill:#000000; fill-opacity:1.0000; stroke:none;">
<circle cx="141.0000" cy="177.5000" r="0.4000" /> 
</g>
<g style="fill:#000000; fill-opacity:1.0000; stroke:none;">
<circle cx="121.5000" cy="144.5000" r="0.4000" /> 
</g>
<g style="fill:#000000; fill-opacity:1.0000; stroke:none;">
<circle cx="123.7500" cy="144.5000" r="0.4000" /> 
</g>
<g style="fill:#000000; fill-opacity:1.0000; stroke:none;">
<circle cx="127.0000" cy="145.5000" r="0.4000" /> 
</g>
<g style="fill:#000000; fill-opacity:1.0000; stroke:none;">
<circle cx="105.5000" cy="175.7500" r="0.4000" /> 
</g>
<g style="fill:#000000; fill-opacity:1.0000; stroke:none;">
<circle cx="99.0000" cy="175.7500" r="0.4000" /> 
</g>
<g style="fill:#000000; fill-opacity:1.0000; stroke:none;">
<circle cx="100.5000" cy="179.7500" r="0.4000" /> 
</g>
<g style="fill:#000000; fill-opacity:1.0000; stroke:none;">
<circle cx="104.0000" cy="179.7500" r="0.4000" /> 
</g>
<g style="fill:#000000; fill-opacity:1.0000; stroke:none;">
<circle cx="85.1901" cy="108.5341" r="0.3000" /> 
</g>
<g style="fill:#000000; fill-opacity:1.0000; stroke:none;">
<circle cx="100.4190" cy="97.8654" r="0.3000" /> 
</g>
<g style="fill:#000000; fill-opacity:1.0000; stroke:none;">
<circle cx="85.1342" cy="92.5310" r="0.3000" /> 
</g>
<g style="fill:#000000; fill-opacity:1.0000; stroke:none;">
<circle cx="100.4190" cy="92.5310" r="0.3000" /> 
</g>
<g style="fill:#000000; fill-opacity:1.0000; stroke:none;">
<circle cx="90.2664" cy="111.0723" r="0.3000" /> 
</g>
<g style="fill:#000000; fill-opacity:1.0000; stroke:none;">
<circle cx="92.8171" cy="103.1997" r="0.3000" /> 
</g>
<g style="fill:#000000; fill-opacity:1.0000; stroke:none;">
<circle cx="90.2664" cy="113.8684" r="0.3000" /> 
</g>
<g style="fill:#000000; fill-opacity:1.0000; stroke:none;">
<circle cx="105.4254" cy="108.5341" r="0.3000" /> 
</g>
<g style="fill:#000000; fill-opacity:1.0000; stroke:none;">
<circle cx="105.4254" cy="103.1997" r="0.3000" /> 
</g>
<g style="fill:#000000; fill-opacity:1.0000; stroke:none;">
<circle cx="95.3427" cy="97.8654" r="0.3000" /> 
</g>
<g style="fill:#000000; fill-opacity:1.0000; stroke:none;">
<circle cx="90.2664" cy="100.5406" r="0.3000" /> 
</g>
<g style="fill:#000000; fill-opacity:1.0000; stroke:none;">
<circle cx="97.8808" cy="113.8684" r="0.3000" /> 
</g>
<g style="fill:#000000; fill-opacity:1.0000; stroke:none;">
<circle cx="95.3427" cy="103.1997" r="0.3000" /> 
</g>
<g style="fill:#000000; fill-opacity:1.0000; stroke:none;">
<circle cx="95.3427" cy="113.8684" r="0.3000" /> 
</g>
<g style="fill:#000000; fill-opacity:1.0000; stroke:none;">
<circle cx="85.1901" cy="113.8684" r="0.3000" /> 
</g>
<g style="fill:#000000; fill-opacity:1.0000; stroke:none;">
<circle cx="90.2664" cy="103.1997" r="0.3000" /> 
</g>
<g style="fill:#000000; fill-opacity:1.0000; stroke:none;">
<circle cx="87.6892" cy="97.8697" r="0.3000" /> 
</g>
<g style="fill:#000000; fill-opacity:1.0000; stroke:none;">
<circle cx="105.4254" cy="92.5310" r="0.3000" /> 
</g>
<g style="fill:#000000; fill-opacity:1.0000; stroke:none;">
<circle cx="102.9571" cy="113.8684" r="0.3000" /> 
</g>
<g style="fill:#000000; fill-opacity:1.0000; stroke:none;">
<circle cx="87.8571" cy="108.5235" r="0.3000" /> 
</g>
<g style="fill:#000000; fill-opacity:1.0000; stroke:none;">
<circle cx="102.9571" cy="92.5310" r="0.3000" /> 
</g>
<g style="fill:#000000; fill-opacity:1.0000; stroke:none;">
<circle cx="95.3427" cy="92.5310" r="0.3000" /> 
</g>
<g style="fill:#000000; fill-opacity:1.0000; stroke:none;">
<circle cx="100.1150" cy="108.5341" r="0.3000" /> 
</g>
<g style="fill:#000000; fill-opacity:1.0000; stroke:none;">
<circle cx="90.2664" cy="108.6311" r="0.3000" /> 
</g>
<g style="fill:#000000; fill-opacity:1.0000; stroke:none;">
<circle cx="105.4254" cy="111.2013" r="0.3000" /> 
</g>
<g style="fill:#000000; fill-opacity:1.0000; stroke:none;">
<circle cx="105.4254" cy="105.8669" r="0.3000" /> 
</g>
<g style="fill:#000000; fill-opacity:1.0000; stroke:none;">
<circle cx="105.4254" cy="97.8654" r="0.3000" /> 
</g>
<g style="fill:#000000; fill-opacity:1.0000; stroke:none;">
<circle cx="85.1342" cy="103.1997" r="0.3000" /> 
</g>
<g style="fill:#000000; fill-opacity:1.0000; stroke:none;">
<circle cx="100.4190" cy="103.1997" r="0.3000" /> 
</g>
<g style="fill:#000000; fill-opacity:1.0000; stroke:none;">
<circle cx="85.1342" cy="105.8669" r="0.3000" /> 
</g>
<g style="fill:#000000; fill-opacity:1.0000; stroke:none;">
<circle cx="95.3427" cy="105.8669" r="0.3000" /> 
</g>
<g style="fill:#000000; fill-opacity:1.0000; stroke:none;">
<circle cx="85.1342" cy="97.8654" r="0.3000" /> 
</g>
<g style="fill:#000000; fill-opacity:1.0000; stroke:none;">
<circle cx="90.2664" cy="92.6620" r="0.3000" /> 
</g>
<g style="fill:#000000; fill-opacity:1.0000; stroke:none;">
<circle cx="97.8808" cy="97.8654" r="0.3000" /> 
</g>
<g style="fill:#000000; fill-opacity:1.0000; stroke:none;">
<circle cx="100.4190" cy="113.8684" r="0.3000" /> 
</g>
<g style="fill:#000000; fill-opacity:1.0000; stroke:none;">
<circle cx="105.4254" cy="113.8684" r="0.3000" /> 
</g>
<g style="fill:#000000; fill-opacity:1.0000; stroke:none;">
<circle cx="95.3427" cy="108.5341" r="0.3000" /> 
</g>
<g style="fill:#000000; fill-opacity:1.0000; stroke:none;">
<circle cx="105.4254" cy="95.1982" r="0.3000" /> 
</g>
<g style="fill:#000000; fill-opacity:1.0000; stroke:none;">
<circle cx="90.2664" cy="97.8654" r="0.3000" /> 
</g>
<g style="fill:#000000; fill-opacity:1.0000; stroke:none;">
<circle cx="92.8045" cy="92.5310" r="0.3000" /> 
</g>
<g style="fill:#000000; fill-opacity:1.0000; stroke:none;">
<circle cx="102.9571" cy="103.1997" r="0.3000" /> 
</g>
<g style="fill:#000000; fill-opacity:1.0000; stroke:none;">
<circle cx="97.8486" cy="108.5341" r="0.3000" /> 
</g>
<g style="fill:#000000; fill-opacity:1.0000; stroke:none;">
<circle cx="95.3427" cy="95.4772" r="0.3000" /> 
</g>
<g style="fill:#000000; fill-opacity:1.0000; stroke:none;">
<circle cx="92.8045" cy="113.8684" r="0.3000" /> 
</g>
<g style="fill:#000000; fill-opacity:1.0000; stroke:none;">
<circle cx="100.3524" cy="100.6225" r="0.3000" /> 
</g>
<g style="fill:#000000; fill-opacity:1.0000; stroke:none;">
<circle cx="47.8996" cy="128.4198" r="0.3000" /> 
</g>
<g style="fill:#000000; fill-opacity:1.0000; stroke:none;">
<circle cx="47.8996" cy="135.2468" r="0.3000" /> 
</g>
<g style="fill:#000000; fill-opacity:1.0000; stroke:none;">
<circle cx="47.8996" cy="137.5225" r="0.3000" /> 
</g>
<g style="fill:#000000; fill-opacity:1.0000; stroke:none;">
<circle cx="53.1385" cy="137.5225" r="0.3000" /> 
</g>
<g style="fill:#000000; fill-opacity:1.0000; stroke:none;">
<circle cx="53.1385" cy="132.9711" r="0.3000" /> 
</g>
<g style="fill:#000000; fill-opacity:1.0000; stroke:none;">
<circle cx="53.1385" cy="135.2468" r="0.3000" /> 
</g>
<g style="fill:#000000; fill-opacity:1.0000; stroke:none;">
<circle cx="50.1410" cy="135.1534" r="0.3000" /> 
</g>
<g style="fill:#000000; fill-opacity:1.0000; stroke:none;">
<circle cx="47.8996" cy="130.6955" r="0.3000" /> 
</g>
<g style="fill:#000000; fill-opacity:1.0000; stroke:none;">
<circle cx="47.8996" cy="132.9711" r="0.3000" /> 
</g>
<g style="fill:#000000; fill-opacity:1.0000; stroke:none;">
<circle cx="57.2745" cy="137.5225" r="0.3000" /> 
</g>
<g style="fill:#000000; fill-opacity:1.0000; stroke:none;">
<circle cx="141.4734" cy="133.6543" r="0.3000" /> 
</g>
<g style="fill:#000000; fill-opacity:1.0000; stroke:none;">
<circle cx="112.2117" cy="135.2468" r="0.3000" /> 
</g>
<g style="fill:#000000; fill-opacity:1.0000; stroke:none;">
<circle cx="73.0677" cy="137.5225" r="0.3000" /> 
</g>
<g style="fill:#000000; fill-opacity:1.0000; stroke:none;">
<circle cx="106.5917" cy="132.9711" r="0.3000" /> 
</g>
<g style="fill:#000000; fill-opacity:1.0000; stroke:none;">
<circle cx="85.6472" cy="130.0520" r="0.3000" /> 
</g>
<g style="fill:#000000; fill-opacity:1.0000; stroke:none;">
<circle cx="65.8015" cy="135.2468" r="0.3000" /> 
</g>
<g style="fill:#000000; fill-opacity:1.0000; stroke:none;">
<circle cx="125.2253" cy="132.8565" r="0.3000" /> 
</g>
<g style="fill:#000000; fill-opacity:1.0000; stroke:none;">
<circle cx="119.0561" cy="132.9666" r="0.3000" /> 
</g>
<g style="fill:#000000; fill-opacity:1.0000; stroke:none;">
<circle cx="65.8015" cy="137.5225" r="0.3000" /> 
</g>
<g style="fill:#000000; fill-opacity:1.0000; stroke:none;">
<circle cx="83.9241" cy="128.4198" r="0.3000" /> 
</g>
<g style="fill:#000000; fill-opacity:1.0000; stroke:none;">
<circle cx="80.1700" cy="135.2944" r="0.3000" /> 
</g>
<g style="fill:#000000; fill-opacity:1.0000; stroke:none;">
<circle cx="62.1378" cy="128.4198" r="0.3000" /> 
</g>
<g style="fill:#000000; fill-opacity:1.0000; stroke:none;">
<circle cx="141.4734" cy="137.5225" r="0.3000" /> 
</g>
<g style="fill:#000000; fill-opacity:1.0000; stroke:none;">
<circle cx="81.3852" cy="128.4198" r="0.3000" /> 
</g>
<g style="fill:#000000; fill-opacity:1.0000; stroke:none;">
<circle cx="99.5693" cy="131.1140" r="0.3000" /> 
</g>
<g style="fill:#000000; fill-opacity:1.0000; stroke:none;">
<circle cx="141.4734" cy="128.4198" r="0.3000" /> 
</g>
<g style="fill:#000000; fill-opacity:1.0000; stroke:none;">
<circle cx="65.8015" cy="132.9711" r="0.3000" /> 
</g>
<g style="fill:#000000; fill-opacity:1.0000; stroke:none;">
<circle cx="57.2745" cy="130.6955" r="0.3000" /> 
</g>
<g style="fill:#000000; fill-opacity:1.0000; stroke:none;">
<circle cx="121.2762" cy="137.5225" r="0.3000" /> 
</g>
<g style="fill:#000000; fill-opacity:1.0000; stroke:none;">
<circle cx="137.8227" cy="132.7480" r="0.3000" /> 
</g>
<g style="fill:#000000; fill-opacity:1.0000; stroke:none;">
<circle cx="106.7200" cy="135.2468" r="0.3000" /> 
</g>
<g style="fill:#000000; fill-opacity:1.0000; stroke:none;">
<circle cx="70.4737" cy="137.5225" r="0.3000" /> 
</g>
<g style="fill:#000000; fill-opacity:1.0000; stroke:none;">
<circle cx="132.6278" cy="132.9658" r="0.3000" /> 
</g>
<g style="fill:#000000; fill-opacity:1.0000; stroke:none;">
<circle cx="62.1574" cy="137.5225" r="0.3000" /> 
</g>
<g style="fill:#000000; fill-opacity:1.0000; stroke:none;">
<circle cx="73.0677" cy="132.9711" r="0.3000" /> 
</g>
<g style="fill:#000000; fill-opacity:1.0000; stroke:none;">
<circle cx="57.2745" cy="128.4198" r="0.3000" /> 
</g>
<g style="fill:#000000; fill-opacity:1.0000; stroke:none;">
<circle cx="125.2253" cy="135.2944" r="0.3000" /> 
</g>
<g style="fill:#000000; fill-opacity:1.0000; stroke:none;">
<circle cx="59.7970" cy="128.4198" r="0.3000" /> 
</g>
<g style="fill:#000000; fill-opacity:1.0000; stroke:none;">
<circle cx="110.8047" cy="128.4198" r="0.3000" /> 
</g>
<g style="fill:#000000; fill-opacity:1.0000; stroke:none;">
<circle cx="112.2786" cy="130.6955" r="0.3000" /> 
</g>
<g style="fill:#000000; fill-opacity:1.0000; stroke:none;">
<circle cx="116.3499" cy="135.2468" r="0.3000" /> 
</g>
<g style="fill:#000000; fill-opacity:1.0000; stroke:none;">
<circle cx="77.9276" cy="137.5225" r="0.3000" /> 
</g>
<g style="fill:#000000; fill-opacity:1.0000; stroke:none;">
<circle cx="65.8015" cy="130.6955" r="0.3000" /> 
</g>
<g style="fill:#000000; fill-opacity:1.0000; stroke:none;">
<circle cx="73.0677" cy="130.6955" r="0.3000" /> 
</g>
<g style="fill:#000000; fill-opacity:1.0000; stroke:none;">
<circle cx="73.0677" cy="128.4198" r="0.3000" /> 
</g>
<g style="fill:#000000; fill-opacity:1.0000; stroke:none;">
<circle cx="118.9624" cy="128.4198" r="0.3000" /> 
</g>
<g style="fill:#000000; fill-opacity:1.0000; stroke:none;">
<circle cx="103.4476" cy="128.4198" r="0.3000" /> 
</g>
<g style="fill:#000000; fill-opacity:1.0000; stroke:none;">
<circle cx="125.2253" cy="130.4881" r="0.3000" /> 
</g>
<g style="fill:#000000; fill-opacity:1.0000; stroke:none;">
<circle cx="137.4809" cy="135.2944" r="0.3000" /> 
</g>
<g style="fill:#000000; fill-opacity:1.0000; stroke:none;">
<circle cx="102.3444" cy="132.9711" r="0.3000" /> 
</g>
<g style="fill:#000000; fill-opacity:1.0000; stroke:none;">
<circle cx="141.4734" cy="131.0761" r="0.3000" /> 
</g>
<g style="fill:#000000; fill-opacity:1.0000; stroke:none;">
<circle cx="132.6278" cy="128.4198" r="0.3000" /> 
</g>
<g style="fill:#000000; fill-opacity:1.0000; stroke:none;">
<circle cx="53.1385" cy="130.6955" r="0.3000" /> 
</g>
<g style="fill:#000000; fill-opacity:1.0000; stroke:none;">
<circle cx="116.3499" cy="130.6955" r="0.3000" /> 
</g>
<g style="fill:#000000; fill-opacity:1.0000; stroke:none;">
<circle cx="137.2174" cy="129.9646" r="0.3000" /> 
</g>
<g style="fill:#000000; fill-opacity:1.0000; stroke:none;">
<circle cx="116.3499" cy="137.5225" r="0.3000" /> 
</g>
<g style="fill:#000000; fill-opacity:1.0000; stroke:none;">
<circle cx="75.6229" cy="137.5225" r="0.3000" /> 
</g>
<g style="fill:#000000; fill-opacity:1.0000; stroke:none;">
<circle cx="116.3499" cy="128.4198" r="0.3000" /> 
</g>
<g style="fill:#000000; fill-opacity:1.0000; stroke:none;">
<circle cx="57.2745" cy="132.9711" r="0.3000" /> 
</g>
<g style="fill:#000000; fill-opacity:1.0000; stroke:none;">
<circle cx="112.4045" cy="132.9711" r="0.3000" /> 
</g>
<g style="fill:#000000; fill-opacity:1.0000; stroke:none;">
<circle cx="101.9270" cy="135.2468" r="0.3000" /> 
</g>
<g style="fill:#000000; fill-opacity:1.0000; stroke:none;">
<circle cx="97.8158" cy="137.5225" r="0.3000" /> 
</g>
<g style="fill:#000000; fill-opacity:1.0000; stroke:none;">
<circle cx="57.2745" cy="135.2468" r="0.3000" /> 
</g>
<g style="fill:#000000; fill-opacity:1.0000; stroke:none;">
<circle cx="84.0686" cy="137.5225" r="0.3000" /> 
</g>
<g style="fill:#000000; fill-opacity:1.0000; stroke:none;">
<circle cx="108.2595" cy="128.4198" r="0.3000" /> 
</g>
<g style="fill:#000000; fill-opacity:1.0000; stroke:none;">
<circle cx="116.3499" cy="132.9711" r="0.3000" /> 
</g>
<g style="fill:#000000; fill-opacity:1.0000; stroke:none;">
<circle cx="101.2896" cy="137.5225" r="0.3000" /> 
</g>
<g style="fill:#000000; fill-opacity:1.0000; stroke:none;">
<circle cx="120.0526" cy="135.2944" r="0.3000" /> 
</g>
<g style="fill:#000000; fill-opacity:1.0000; stroke:none;">
<circle cx="121.2758" cy="128.6980" r="0.3000" /> 
</g>
<g style="fill:#000000; fill-opacity:1.0000; stroke:none;">
<circle cx="121.3928" cy="131.0297" r="0.3000" /> 
</g>
<g style="fill:#000000; fill-opacity:1.0000; stroke:none;">
<circle cx="81.3536" cy="137.5225" r="0.3000" /> 
</g>
<g style="fill:#000000; fill-opacity:1.0000; stroke:none;">
<circle cx="73.0677" cy="135.2468" r="0.3000" /> 
</g>
<g style="fill:#000000; fill-opacity:1.0000; stroke:none;">
<circle cx="110.7057" cy="137.5225" r="0.3000" /> 
</g>
<g style="fill:#000000; fill-opacity:1.0000; stroke:none;">
<circle cx="108.1502" cy="137.5225" r="0.3000" /> 
</g>
<g style="fill:#000000; fill-opacity:1.0000; stroke:none;">
<circle cx="99.5522" cy="133.5244" r="0.3000" /> 
</g>
<g style="fill:#000000; fill-opacity:1.0000; stroke:none;">
<circle cx="80.1429" cy="130.0062" r="0.3000" /> 
</g>
<g style="fill:#000000; fill-opacity:1.0000; stroke:none;">
<circle cx="86.0263" cy="132.5528" r="0.3000" /> 
</g>
<g style="fill:#000000; fill-opacity:1.0000; stroke:none;">
<circle cx="68.2923" cy="137.5225" r="0.3000" /> 
</g>
<g style="fill:#000000; fill-opacity:1.0000; stroke:none;">
<circle cx="102.9532" cy="130.6955" r="0.3000" /> 
</g>
<g style="fill:#000000; fill-opacity:1.0000; stroke:none;">
<circle cx="132.6278" cy="130.5610" r="0.3000" /> 
</g>
<g style="fill:#000000; fill-opacity:1.0000; stroke:none;">
<circle cx="135.3728" cy="128.4198" r="0.3000" /> 
</g>
<g style="fill:#000000; fill-opacity:1.0000; stroke:none;">
<circle cx="125.2253" cy="128.4198" r="0.3000" /> 
</g>
<g style="fill:#000000; fill-opacity:1.0000; stroke:none;">
<circle cx="59.7980" cy="137.5225" r="0.3000" /> 
</g>
<g style="fill:#000000; fill-opacity:1.0000; stroke:none;">
<circle cx="125.2253" cy="137.5225" r="0.3000" /> 
</g>
<g style="fill:#000000; fill-opacity:1.0000; stroke:none;">
<circle cx="96.7058" cy="132.9711" r="0.3000" /> 
</g>
<g style="fill:#000000; fill-opacity:1.0000; stroke:none;">
<circle cx="59.8426" cy="132.9711" r="0.3000" /> 
</g>
<g style="fill:#000000; fill-opacity:1.0000; stroke:none;">
<circle cx="132.6278" cy="135.2944" r="0.3000" /> 
</g>
<g style="fill:#000000; fill-opacity:1.0000; stroke:none;">
<circle cx="135.2776" cy="137.5225" r="0.3000" /> 
</g>
<g style="fill:#000000; fill-opacity:1.0000; stroke:none;">
<circle cx="95.8436" cy="128.4198" r="0.3000" /> 
</g>
<g style="fill:#000000; fill-opacity:1.0000; stroke:none;">
<circle cx="127.7594" cy="137.5225" r="0.3000" /> 
</g>
<g style="fill:#000000; fill-opacity:1.0000; stroke:none;">
<circle cx="85.6015" cy="135.2710" r="0.3000" /> 
</g>
<g style="fill:#000000; fill-opacity:1.0000; stroke:none;">
<circle cx="53.1385" cy="128.4198" r="0.3000" /> 
</g>
<g style="fill:#000000; fill-opacity:1.0000; stroke:none;">
<circle cx="97.3561" cy="135.2468" r="0.3000" /> 
</g>
<g style="fill:#000000; fill-opacity:1.0000; stroke:none;">
<circle cx="132.6278" cy="137.5225" r="0.3000" /> 
</g>
<g style="fill:#000000; fill-opacity:1.0000; stroke:none;">
<circle cx="106.6936" cy="130.6955" r="0.3000" /> 
</g>
<g style="fill:#000000; fill-opacity:1.0000; stroke:none;">
<circle cx="79.8523" cy="132.4461" r="0.3000" /> 
</g>
<g style="fill:#000000; fill-opacity:1.0000; stroke:none;">
<circle cx="130.0954" cy="137.5225" r="0.3000" /> 
</g>
<g style="fill:#000000; fill-opacity:1.0000; stroke:none;">
<circle cx="96.2726" cy="130.6955" r="0.3000" /> 
</g>
<g style="fill:#000000; fill-opacity:1.0000; stroke:none;">
<circle cx="65.8015" cy="128.4198" r="0.3000" /> 
</g>
<g style="fill:none; 
stroke:#000000; stroke-width:0.2500; stroke-opacity:1; 
stroke-linecap:round; stroke-linejoin:round;">
<path d="M102.9433 174.3321
L101.9933 174.3321
" />
<path d="M116.0253 161.2500
L102.9433 174.3321
" />
<path d="M136.2500 161.2500
L116.0253 161.2500
" />
<path d="M116.5000 159.7500
L136.2500 159.7500
" />
<path d="M102.7500 173.5000
L116.5000 159.7500
" />
<path style="fill:#000000; fill-opacity:1.0000; stroke:none;fill-rule:evenodd;"
d="M 149.9012,84.2498
149.9594,84.2688
149.9952,84.3184
150.0000,84.3488
150.0000,183.9010
149.9811,183.9592
149.9316,183.9952
149.9010,184.0000
136.5990,184.0000
136.5408,183.9811
136.5048,183.9316
136.5000,183.9010
136.5000,177.5000
136.5000,177.5000
113.5000,177.5000
113.5000,177.5000
113.5000,183.9010
113.4811,183.9592
113.4316,183.9952
113.4010,184.0000
106.7020,184.0000
106.6438,183.9811
106.6078,183.9316
106.6078,183.8704
106.6438,183.8209
106.6641,183.8095
106.6669,183.8084
106.6912,183.7983
106.8305,183.7052
106.9489,183.5868
107.0420,183.4475
107.1061,183.2927
107.1388,183.1284
107.1388,182.3608
107.1061,182.1965
107.0420,182.0417
106.9489,181.9024
106.8305,181.7840
106.6912,181.6909
106.6912,181.6909
106.6912,181.6909
106.5364,181.6268
106.5364,181.6268
106.3721,181.5941
106.3721,181.5941
106.2045,181.5941
106.2045,181.5941
106.0402,181.6268
106.0402,181.6268
105.8855,181.6909
105.7462,181.7840
105.7461,181.7840
105.6277,181.9024
105.6277,181.9024
105.5346,182.0417
105.4705,182.1965
105.4705,182.1965
105.4378,182.3608
105.4378,183.1284
105.4705,183.2927
105.4705,183.2927
105.5346,183.4475
105.5346,183.4475
105.6277,183.5868
105.7462,183.7052
105.8855,183.7983
105.9126,183.8095
105.9591,183.8493
105.9734,183.9088
105.9499,183.9653
105.8978,183.9973
105.8747,184.0000
98.0620,184.0000
98.0038,183.9811
97.9678,183.9316
97.9678,183.8704
98.0038,183.8209
98.0241,183.8095
98.0269,183.8084
98.0512,183.7983
98.1905,183.7052
98.3089,183.5868
98.4020,183.4475
98.4661,183.2927
98.4988,183.1284
98.4988,182.3608
98.4661,182.1965
98.4020,182.0417
98.3089,181.9024
98.1905,181.7840
98.0512,181.6909
98.0512,181.6909
98.0512,181.6909
97.8964,181.6268
97.8964,181.6268
97.7321,181.5941
97.7321,181.5941
97.5645,181.5941
97.5645,181.5941
97.4002,181.6268
97.4002,181.6268
97.2455,181.6909
97.1062,181.7840
97.1061,181.7840
96.9877,181.9024
96.9877,181.9024
96.8946,182.0417
96.8305,182.1965
96.8305,182.1965
96.7978,182.3608
96.7978,183.1284
96.8305,183.2927
96.8305,183.2927
96.8946,183.4475
96.8946,183.4475
96.9877,183.5868
97.1062,183.7052
97.2455,183.7983
97.2726,183.8095
97.3191,183.8493
97.3334,183.9088
97.3099,183.9653
97.2578,183.9973
97.2347,184.0000
40.0990,184.0000
40.0408,183.9811
40.0048,183.9316
40.0000,183.9010
40.0000,178.0708
96.7978,178.0708
96.7978,179.0384
96.8305,179.2027
96.8305,179.2027
96.8946,179.3575
96.8946,179.3575
96.9877,179.4968
97.1062,179.6152
97.2455,179.7083
97.4002,179.7724
97.5645,179.8051
97.5645,179.8051
97.7321,179.8051
97.7321,179.8051
97.8964,179.7724
98.0512,179.7083
98.1905,179.6152
98.3089,179.4968
98.3826,179.3865
98.4306,179.3486
98.4918,179.3462
98.5427,179.3802
98.5506,179.3920
98.5538,179.3974
98.5538,179.3974
98.5538,179.3974
98.5663,179.4138
98.5740,179.4238
98.5812,179.4346
98.5978,179.4633
98.5978,179.4633
98.6213,179.4868
98.6298,179.4965
98.6500,179.5229
98.6500,179.5229
98.6764,179.5431
98.6861,179.5516
98.7096,179.5751
98.7096,179.5751
98.7384,179.5917
98.7491,179.5989
98.7755,179.6191
98.7893,179.6249
98.8062,179.6319
98.8178,179.6376
98.8465,179.6542
98.8465,179.6542
98.8465,179.6542
98.8786,179.6628
98.8909,179.6669
98.9216,179.6796
98.9545,179.6840
98.9672,179.6865
98.9993,179.6951
99.0325,179.6951
99.0454,179.6960
99.0783,179.7003
99.0783,179.7003
99.0783,179.7003
99.1112,179.6960
99.1242,179.6951
99.1574,179.6951
99.1574,179.6951
99.1895,179.6865
99.2021,179.6840
99.2351,179.6796
99.2658,179.6669
99.2780,179.6628
99.3101,179.6542
99.3284,179.6436
99.3389,179.6376
99.3505,179.6319
99.3812,179.6191
99.4075,179.5989
99.4183,179.5917
99.4470,179.5751
99.4705,179.5516
99.4802,179.5431
99.5066,179.5229
99.5268,179.4965
99.5353,179.4868
99.5588,179.4633
99.5754,179.4346
99.5826,179.4238
99.6028,179.3974
99.6156,179.3668
99.6213,179.3551
99.6379,179.3264
99.6379,179.3264
99.6465,179.2943
99.6506,179.2821
99.6634,179.2514
99.6677,179.2184
99.6702,179.2057
99.6788,179.1737
99.6788,179.1405
99.6797,179.1275
99.6840,179.0946
99.6840,179.0946
99.6797,179.0617
99.6788,179.0488
99.6788,179.0156
99.6788,179.0155
99.6702,178.9835
99.6677,178.9708
99.6634,178.9378
99.6634,178.9378
99.6506,178.9072
99.6465,178.8949
99.6379,178.8628
99.6379,178.8628
99.6379,178.8628
99.6213,178.8341
99.6156,178.8225
99.6029,178.7918
99.6028,178.7918
99.5826,178.7654
99.5754,178.7546
99.5588,178.7259
99.5588,178.7259
99.5353,178.7024
99.5268,178.6927
99.5066,178.6663
99.5066,178.6663
99.4802,178.6461
99.4705,178.6376
99.4470,178.6141
99.4470,178.6141
99.4183,178.5975
99.4075,178.5903
99.3812,178.5701
99.3505,178.5574
99.3389,178.5516
99.3101,178.5350
99.3101,178.5350
99.2780,178.5264
99.2658,178.5223
99.2351,178.5096
99.2351,178.5096
99.2021,178.5052
99.1894,178.5027
99.1574,178.4941
99.1574,178.4941
99.1242,178.4941
99.1112,178.4933
99.0783,178.4889
99.0783,178.4889
99.0454,178.4933
99.0325,178.4941
98.9993,178.4941
98.9756,178.5005
98.9672,178.5027
98.9545,178.5052
98.9216,178.5096
98.9216,178.5096
98.8909,178.5223
98.8786,178.5264
98.8465,178.5350
98.8465,178.5350
98.8178,178.5516
98.8062,178.5574
98.7755,178.5701
98.7491,178.5903
98.7384,178.5975
98.7096,178.6141
98.7096,178.6141
98.6861,178.6376
98.6764,178.6461
98.6581,178.6601
98.6004,178.6806
98.5417,178.6632
98.5045,178.6147
98.4988,178.5816
98.4988,178.0708
98.4988,178.0708
105.4378,178.0708
105.4378,179.0384
105.4705,179.2027
105.4705,179.2027
105.5346,179.3575
105.5346,179.3575
105.6277,179.4968
105.7462,179.6152
105.8855,179.7083
106.0402,179.7724
106.2045,179.8051
106.2045,179.8051
106.3721,179.8051
106.3721,179.8051
106.5364,179.7724
106.6912,179.7083
106.8305,179.6152
106.9489,179.4968
107.0420,179.3575
107.1061,179.2027
107.1388,179.0384
107.1388,178.0708
107.1061,177.9065
107.0420,177.7517
106.9489,177.6124
106.8305,177.4940
106.6912,177.4009
106.6912,177.4009
106.6912,177.4009
106.5364,177.3368
106.5364,177.3368
106.3721,177.3041
106.3721,177.3041
106.2045,177.3041
106.2045,177.3041
106.0402,177.3368
106.0402,177.3368
105.8855,177.4009
105.7462,177.4940
105.7461,177.4940
105.6277,177.6124
105.6277,177.6124
105.5346,177.7517
105.4705,177.9065
105.4705,177.9065
105.4378,178.0708
98.4988,178.0708
98.4661,177.9065
98.4661,177.9065
98.4020,177.7517
98.3089,177.6124
98.1905,177.4940
98.0512,177.4009
98.0512,177.4009
98.0512,177.4009
97.8964,177.3368
97.8964,177.3368
97.7321,177.3041
97.7321,177.3041
97.5645,177.3041
97.5645,177.3041
97.4002,177.3368
97.4002,177.3368
97.2455,177.4009
97.1062,177.4940
97.1061,177.4940
96.9877,177.6124
96.9877,177.6124
96.8946,177.7517
96.8305,177.9065
96.8305,177.9065
96.7978,178.0708
40.0000,178.0708
40.0000,174.3321
101.3380,174.3321
101.3380,174.3321
101.3571,174.4889
101.3571,174.4889
101.4116,174.6325
101.4131,174.6366
101.5028,174.7666
101.5028,174.7666
101.5028,174.7666
101.6211,174.8713
101.7609,174.9447
101.9143,174.9826
101.9143,174.9826
102.0723,174.9826
102.0723,174.9826
102.2257,174.9447
102.3656,174.8713
102.4838,174.7666
102.4950,174.7503
102.5436,174.7132
102.5765,174.7076
102.9927,174.7076
103.0404,174.6948
103.0404,174.6948
103.0882,174.6820
103.0882,174.6820
103.0882,174.6820
103.1738,174.6325
103.2437,174.5626
103.2437,174.5626
108.3856,169.4208
127.5191,169.4208
127.5191,169.4208
127.5395,169.5632
127.5993,169.6942
127.5993,169.6942
127.6936,169.8029
127.6936,169.8029
127.8147,169.8807
127.8147,169.8807
127.9211,169.9120
127.9528,169.9213
127.9528,169.9213
127.9528,169.9213
127.9528,169.9213
128.0967,169.9213
128.0967,169.9213
128.2348,169.8807
128.3558,169.8029
128.4501,169.6942
128.5099,169.5632
128.5304,169.4208
128.5099,169.2783
128.4501,169.1474
128.3558,169.0386
128.3558,169.0386
128.3558,169.0386
128.2348,168.9608
128.2348,168.9608
128.2348,168.9608
128.2348,168.9608
128.0967,168.9203
128.0967,168.9203
127.9528,168.9203
127.9528,168.9203
127.8147,168.9608
127.8147,168.9608
127.6936,169.0386
127.5993,169.1474
127.5395,169.2783
127.5191,169.4208
108.3856,169.4208
116.1518,161.6545
116.2064,161.6267
116.2219,161.6255
135.6668,161.6255
135.7250,161.6444
135.7483,161.6683
135.7595,161.6845
135.7595,161.6845
135.7595,161.6845
135.8778,161.7893
136.0176,161.8627
136.1710,161.9005
136.1710,161.9005
136.3290,161.9005
136.3290,161.9005
136.4824,161.8627
136.6222,161.7893
136.7405,161.6845
136.8302,161.5545
136.8862,161.4068
136.9053,161.2500
136.8862,161.0932
136.8302,160.9455
136.7405,160.8155
136.6222,160.7107
136.5523,160.6740
136.4824,160.6373
136.3290,160.5995
136.3290,160.5995
136.1710,160.5995
136.1710,160.5995
136.0176,160.6373
135.8778,160.7107
135.7595,160.8155
135.7483,160.8317
135.6997,160.8689
135.6668,160.8745
116.1455,160.8745
116.0874,160.8556
116.0514,160.8061
116.0514,160.7449
116.0755,160.7055
116.6265,160.1545
116.6811,160.1267
116.6965,160.1255
135.6668,160.1255
135.7250,160.1444
135.7483,160.1683
135.7595,160.1845
135.7595,160.1845
135.7595,160.1845
135.8778,160.2893
136.0176,160.3627
136.1710,160.4005
136.1710,160.4005
136.3290,160.4005
136.3290,160.4005
136.4824,160.3627
136.6222,160.2893
136.7405,160.1845
136.8302,160.0545
136.8862,159.9068
136.9053,159.7500
136.8862,159.5932
136.8302,159.4455
136.7405,159.3155
136.6222,159.2107
136.5523,159.1740
136.4824,159.1373
136.3290,159.0995
136.3290,159.0995
136.1710,159.0995
136.1710,159.0995
136.0176,159.1373
135.8778,159.2107
135.7595,159.3155
135.7483,159.3317
135.6997,159.3689
135.6668,159.3745
116.5494,159.3745
116.4506,159.3745
116.4028,159.3873
116.4028,159.3873
116.3551,159.4001
116.3551,159.4001
116.2694,159.4495
116.2694,159.4495
102.8985,172.8205
102.8439,172.8483
102.8285,172.8495
102.6710,172.8495
102.5176,172.8873
102.3778,172.9607
102.2595,173.0655
102.1698,173.1955
102.1138,173.3432
102.1138,173.3432
102.0947,173.5000
102.0947,173.5000
102.1033,173.5706
102.0915,173.6307
102.0467,173.6723
102.0050,173.6816
101.9143,173.6816
101.7609,173.7194
101.6211,173.7928
101.5028,173.8975
101.4131,174.0275
101.3571,174.1752
101.3571,174.1752
101.3380,174.3321
40.0000,174.3321
40.0000,84.0992
40.0189,84.0410
40.0684,84.0051
40.0992,84.0002
Z" /> 
<path style="fill:none; 
stroke:#000000; stroke-width:0.1000; stroke-opacity:1; 
stroke-linecap:round; stroke-linejoin:round;fill:none"
d="M 40.0000,84.0000
150.0000,84.0000
150.0000,184.0000
40.0000,184.0000
Z" /> 
</g> 
</svg>
